<?xml version="1.0" encoding="UTF-8"?>
<!DOCTYPE svg PUBLIC "-//W3C//DTD SVG 1.1//EN" "http://www.w3.org/Graphics/SVG/1.1/DTD/svg11.dtd">
<!-- Creator: CorelDRAW X7 -->
<svg xmlns="http://www.w3.org/2000/svg" xml:space="preserve" width="49.2mm" height="5.25mm" version="1.1" style="shape-rendering:geometricPrecision; text-rendering:geometricPrecision; image-rendering:optimizeQuality; fill-rule:evenodd; clip-rule:evenodd"
viewBox="0 0 4920 525"
 xmlns:xlink="http://www.w3.org/1999/xlink">
 <defs>
  <style type="text/css">
   <![CDATA[
    .fil0 {fill:#F03910;fill-rule:nonzero}
   ]]>
  </style>
 </defs>
 <g id="Camada_x0020_1">
  <metadata id="CorelCorpID_0Corel-Layer"/>
  <path class="fil0" d="M74 525c-26,0 -45,-4 -57,-14 -11,-9 -17,-23 -17,-42 0,-10 1,-22 4,-35l73 -343c6,-31 18,-54 34,-69 16,-15 41,-22 74,-22l262 0c26,0 45,4 56,14 12,9 18,24 18,43 0,5 -1,11 -2,17 0,5 -1,11 -2,17l-73 343c-6,31 -18,54 -34,69 -16,15 -41,22 -74,22l-262 0zm316 -392c1,-3 1,-5 1,-7 1,-3 1,-4 1,-6 0,-12 -9,-18 -27,-18l-147 0c-10,0 -18,2 -22,6 -5,5 -8,13 -11,25l-56 261c-1,5 -1,9 -1,10 0,11 7,16 22,16l147 0c12,0 21,-2 26,-6 6,-4 9,-11 11,-20l56 -261z"/>
  <polygon id="1" class="fil0" points="858,525 506,525 617,0 735,0 646,419 881,419 "/>
  <path id="2" class="fil0" d="M1079 356l-35 169 -118 0 81 -384 118 0 -25 120 162 0c10,0 16,-3 20,-7 4,-4 7,-12 10,-24l22 -103c2,-5 2,-9 2,-11 0,-5 -2,-9 -5,-11 -3,-2 -9,-3 -16,-3l-280 0 22 -102 329 0c26,0 45,4 56,14 12,9 17,24 17,43 0,5 0,11 -1,16 -1,6 -1,12 -2,18l-37 173c-7,31 -18,55 -34,70 -16,15 -41,22 -75,22l-211 0z"/>
  <polygon id="3" class="fil0" points="1634,525 1745,0 1863,0 1752,525 "/>
  <polygon id="4" class="fil0" points="2288,525 2355,206 2160,525 2068,525 2005,206 1938,525 1840,525 1951,0 2078,0 2146,365 2373,0 2496,0 2385,525 "/>
  <path id="5" class="fil0" d="M2625 356l-36 169 -118 0 81 -384 118 0 -25 120 162 0c10,0 17,-3 20,-7 4,-4 8,-12 10,-24l23 -103c1,-5 1,-9 1,-11 0,-5 -1,-9 -5,-11 -3,-2 -8,-3 -16,-3l-280 0 22 -102 329 0c26,0 45,4 57,14 11,9 17,24 17,43 0,5 -1,11 -2,16 0,6 -1,12 -2,18l-37 173c-6,31 -18,55 -34,70 -16,15 -41,22 -74,22l-211 0z"/>
  <path id="6" class="fil0" d="M3049 525c-26,0 -45,-4 -57,-14 -12,-9 -17,-23 -17,-42 0,-10 1,-22 4,-35l72 -343c7,-31 18,-54 35,-69 16,-15 40,-22 74,-22l262 0c26,0 45,4 56,14 12,9 17,24 17,43 0,5 0,11 -1,17 -1,5 -2,11 -3,17l-72 343c-6,31 -18,54 -34,69 -17,15 -41,22 -74,22l-262 0zm316 -392c0,-3 1,-5 1,-7 0,-3 0,-4 0,-6 0,-12 -9,-18 -27,-18l-146 0c-11,0 -18,2 -22,6 -5,5 -8,13 -11,25l-56 261c-1,5 -1,9 -1,10 0,11 7,16 22,16l147 0c12,0 21,-2 26,-6 5,-4 9,-11 11,-20l56 -261z"/>
  <path id="7" class="fil0" d="M3795 525l36 -171c0,-3 0,-5 1,-7 0,-2 0,-3 0,-5 0,-8 -7,-12 -22,-12l-170 0 -41 195 -118 0 82 -384 118 0 -22 102 161 0c12,0 20,-2 23,-6 4,-3 8,-11 10,-21l19 -86c0,-2 1,-5 1,-7 0,-2 0,-4 0,-5 0,-6 -2,-11 -5,-13 -4,-2 -10,-3 -19,-3l-278 0 21 -102 334 0c27,0 46,5 58,14 12,10 18,24 18,44 0,5 0,10 -1,15 -1,5 -2,10 -3,16l-24 114c-6,27 -16,46 -31,57 -15,11 -31,18 -50,20 17,1 31,5 42,11 12,7 17,18 17,35 0,2 0,5 0,8 0,3 0,6 -1,9l-38 182 -118 0z"/>
  <polygon id="8" class="fil0" points="4203,525 4085,525 4174,103 4047,103 4069,0 4442,0 4420,103 4292,103 "/>
  <path id="9" class="fil0" d="M4392 525l22 -102 280 0c10,0 17,-2 21,-6 4,-3 8,-10 10,-20l15 -73c1,-2 1,-5 1,-8 0,-10 -7,-14 -20,-14l-207 0c-22,0 -37,-5 -47,-14 -9,-9 -14,-22 -14,-38 0,-7 1,-14 2,-23l29 -136c7,-31 18,-54 34,-69 16,-15 41,-22 75,-22l327 0 -21 100 -278 0c-9,0 -15,2 -18,5 -4,4 -7,10 -9,20l-14 69c-1,2 -1,4 -2,5 0,2 0,3 0,5 0,8 6,12 17,12l210 0c22,0 38,4 47,14 10,9 15,22 15,38 0,7 -1,14 -3,22l-30 144c-7,31 -18,54 -34,69 -16,15 -41,22 -75,22l-333 0z"/>
 </g>
</svg>
